<svg width="938" height="256" viewBox="0 0 938 256" fill="none" xmlns="http://www.w3.org/2000/svg">
<path fill-rule="evenodd" clip-rule="evenodd" d="M188.189 240.011L158.879 239.682C158.651 235.62 158.537 228.906 160.572 226.155C165.526 223.714 183.451 225.027 190.436 224.916L188.189 240.011ZM838.477 199.341L837.936 202.064C833.614 202.385 831.915 202.342 830.232 206.128C834.977 208.896 832.798 204.851 839.884 205.718L841.509 217.383C824.129 219.405 801.289 213.444 782.993 215.767C785.608 218.665 794.257 217.838 797.988 218.066C803.359 218.394 808.747 218.57 814.092 218.965C823.106 219.631 837.195 220.723 845.924 219.664C843.947 215.539 844.74 220.802 843.839 214.811C843.436 212.132 843.245 209.521 842.749 206.77L822.764 107.917L821.169 103.533C818.31 103.098 815.175 102.875 812.229 102.987C805.848 103.231 806.937 102.605 805.557 106.443L819.789 106.067C823.279 118.73 827.138 139.223 829.32 152.685C830.595 160.547 831.853 169.389 833.641 176.97C835.4 184.434 838.43 191.672 838.477 199.34V199.341ZM919.478 221.843C921.222 219.737 919.791 225.336 920.822 220.395C920.915 219.954 921.4 219.996 921.591 219.711C925.262 220.428 930.747 222.247 934.199 220.353C932.085 214.983 934.032 218.68 922.87 216.912L923.043 210.313C926.616 210.564 927.666 210.249 930.814 209.996C937.435 209.464 935.615 210.585 937.999 208.176C933.093 205.975 928.988 207.136 923.084 207.408C921.61 203.227 921.336 202.851 917.223 201.451C914.096 200.386 911.155 199.32 908.127 198.565C899.599 196.44 874.85 189.358 868.576 191.544C864.002 193.137 855.352 197.03 850.256 196.109C844.392 186.497 829.167 122.499 826.538 106.885C820.198 69.2446 833.856 26.3601 831.772 3.46828C829.194 4.42724 827.872 5.99203 825.717 7.71684C818.547 13.4556 821.129 13.1049 818.982 30.1184C818.614 33.0356 818.55 33.6143 820.064 35.5798C824.13 31.0864 822.676 27.9063 823.08 20.7904C823.583 11.9209 824.421 13.6192 828.35 9.23651L825.399 39.5895L822.394 76.0067C821.935 83.7729 821.869 86.5872 822.533 94.3468L824.076 105.838C824.885 122.427 839.601 171.475 845.613 192.613C847.135 197.966 852.708 216.397 854.982 220.614C855.255 220.772 855.688 220.635 855.843 221.004L885.336 225.695C893.435 226.516 911.267 228.705 918.28 228.208C919.297 226.922 918.664 228.554 919.078 226.564L857.545 218.685C854.948 214.584 852.516 206.69 852.328 201.839C855.776 198.473 862.389 197.288 867.11 195.643C879.512 191.323 900.078 201.559 918.463 204.921L917.694 207.995C917.693 210.667 917.549 213.313 917.526 215.98C917.524 216.25 917.536 219.25 917.551 219.309C918.428 222.824 917.493 220.985 919.981 222.865L919.478 221.843V221.843ZM719.517 240.43L724.377 240.541C724.478 245.43 724.053 252.228 728.47 254.483C730.898 250.092 729.677 244.08 729.734 239L761.394 237.381C760.38 241.777 756.392 249.211 759.196 252.95C761.082 250.416 761.594 246.36 762.756 242.547C765.652 233.043 765.949 239.658 767.843 234.711L737.329 235.473L729.072 234.756L728.622 221.017L738.263 219.043C743.519 219.063 748.377 218.247 753.602 217.876C759.864 217.432 765.308 218.858 768.65 215.944C762.482 212.274 747.384 216.822 739.347 215.514L730.678 216.044C729.531 214.405 730.583 216.254 729.547 213.676C728.412 210.855 729.306 209.745 725.229 208.921C721.064 208.08 718.187 209.767 713.088 208.62L691.315 208.27C686.755 210.54 677.925 209.927 676.015 214.734L708.608 213.68L711.082 219.206C713.335 221.815 714.562 220.541 719.046 220.939L724.951 221.181C724.615 226.685 725.3 232.765 723.52 236.861C719.053 237.117 715.403 236.822 711.067 238.519L711.919 252.094C714.698 248.812 712.632 252.187 713.361 248.968C713.629 247.783 713.59 246.894 713.677 245.71C713.855 243.31 713.534 242.779 714.121 240.162L719.518 240.429L719.517 240.43ZM486.542 199.861L512.542 198.73C508.109 193.359 492.342 196.769 486.352 197.375C486.565 183.729 483.511 138.335 486.097 129.381L490.258 129.302L492.321 144.071C493.554 144.961 492.542 144.486 494.661 145.208C495.361 145.446 496.79 145.734 497.247 145.806C498.57 146.014 500.827 146.095 502.238 146.19C514.462 147.011 511.406 146.011 512.367 144.298C507.451 141.986 499.8 144.043 494.132 142.731L493.41 126.493L483.351 126.617C480.638 142.986 484.805 164.282 482.936 181.241L483.539 197.572C478.163 197.445 470.897 196.495 466.536 197.859C464.949 201.667 465.936 242.141 465.798 250.532C460.659 249.784 457.738 247.775 457.643 252.988L458.443 252.586C458.757 252.782 459.116 253.02 459.402 253.143C463.811 255.049 458.699 254.036 466.443 254.528L467.046 265.765C460.605 265.961 456.474 264.099 450.051 265.194L446.394 266.24C446.229 265.97 445.794 266.492 445.51 266.647C448.803 270.635 449.937 268.387 455.882 268.191C465.441 267.876 471.013 271.774 469.094 254.411L482.379 254.071C488.215 253.313 484.428 253.735 485.883 252.241C488.149 247.006 486.209 209.089 486.541 199.859L486.542 199.861ZM803.018 97.3121L820.094 97.4258L819.647 87.3013L819.985 83.9919L808.962 84.3661C805.367 85.1506 806.498 85.2721 805.757 85.8791L817.669 86.5319L817.998 95.3978L805.907 95.3407L805.15 89.4208L803.018 97.3121ZM817.257 52.3424L817.489 55.8155L806.282 56.0652L806.294 47.6384C809.241 46.8401 809.279 46.9851 812.293 46.8209C817.484 46.5387 815.879 46.9448 818.421 44.8716L804.056 45.4221L804.209 58.3278C810.422 58.6353 815.427 59.4721 819.295 57.2209C819.475 49.1376 819.146 54.2646 817.257 52.3424ZM804.848 77.8374L818.912 78.279C819.762 73.8608 819.747 69.1592 817.858 66.3184L816.904 75.7805L806.745 75.6993L806.396 66.822L813.351 66.2324C812.465 65.413 816.836 63.5745 804.393 64.7302C803.92 69.6483 803.358 73.1106 804.848 77.838V77.8374ZM714.717 217.984L714.624 212.961L725.014 212.856L725.753 217.384L714.717 217.984ZM251.203 245.239L259.672 243.323C260.116 251.934 258.483 254.809 261.672 258.2C264.814 255.022 263.649 250.135 263.492 245.404L271.798 245.526C273.052 249.217 274.471 250.64 275.926 253.492C278.268 258.083 276.448 258.478 280.502 260.923C281.449 253.64 278.347 250.75 276.259 246.008L294.224 230.798C296.959 228.524 297.354 227.754 300.389 225.671L306.239 228.78L305.875 236.346C306.45 243.173 304.044 253.533 306.916 260.169C311.284 257.864 309.683 256.882 309.034 247.914C308.674 242.936 309.123 237.883 308.929 232.906C313.402 233.849 316.564 237.153 319.895 240.461C324.851 245.383 322.347 242.047 322.559 253.507C322.688 260.528 324.61 259.511 326.239 260.221C327.748 254.584 328.645 243.238 323.503 239.07C320.195 236.39 319.569 235.413 316.537 232.789C315.505 231.895 313.99 230.673 312.892 229.841C312.175 229.297 311.513 228.83 310.751 228.296C310.563 228.165 310.075 228.18 309.936 227.76C309.794 227.33 309.382 227.393 309.102 227.213L308.102 115.666C308.04 115.298 307.981 115.028 307.903 114.689C307.828 114.364 307.706 114.056 307.626 113.774L306.916 112.067C306.601 112.542 305.842 111.786 305.401 117.772C303.691 140.987 306.644 197.915 306.048 222.973C303.634 225.43 305.586 223.722 301.997 223.189C292.45 221.769 288.245 235.068 275.899 241.765L275.571 239.64C275.601 236.188 284.487 203.757 285.943 199.754C284.061 200.572 283.472 200.175 281.903 204.227C281.106 206.285 280.991 207.433 280.656 209.467C278.641 221.739 273.925 229.738 270.875 241.39L265.184 240.199C260.298 239.745 255.018 239.995 250.249 239.433L252.517 224.966C256.241 224.787 258.355 224.974 261.711 225.1C267.431 225.315 267.013 225.492 269.847 223.66L253.578 221.788L260.118 188.881C260.302 187.779 260.422 187.303 260.303 186.148C259.991 183.117 260.509 185.045 259.465 183.39L258.435 184.885C256.46 188.989 251.205 217.864 250.641 221.85L227.717 222.011L236.052 180.719C247.407 179.911 275.278 179.875 283.07 190.112C286.312 194.371 283.375 192.695 287.685 194.916C286.279 152.979 138.923 195.669 122.267 196.969C115.148 197.525 121.754 198.026 116.155 194.894C110.286 191.61 102.496 192.634 94.1115 191.631C84.7166 190.509 74.3904 189.679 64.954 188.36C60.6872 188.008 58.2547 188.638 55.4531 186.815C43.4601 188.455 30.0658 183.778 15.2694 186.998C-8.70576 192.214 2.65036 208.15 2.92726 209.193C6.44215 210.553 8.31728 212.225 12.5864 213.51C16.1495 214.583 20.2134 215.111 22.6844 216.433L23.662 224.035C21.7129 223.905 18.1588 223.328 16.5931 223.296C14.6084 223.257 15.4307 223.06 13.4412 223.521C10.8094 224.132 12.0537 223.732 10.6957 224.761C14.9642 227.302 17.3889 226.312 23.3063 226.584C25.1471 230.004 25.9429 236.756 25.2825 241.295L8.19087 242.118C4.90533 231.147 8.86748 213.967 1.57825 211.022C1.80881 218.237 3.92533 229.237 5.18344 237.16C6.25855 243.93 7.75263 243.595 5.62227 249.975C4.09026 254.563 1.50722 258.287 3.59786 261.456L9.08178 244.607L26.4166 244.86C26.0759 248.234 25.5372 249.318 24.5481 252.631C22.1306 260.734 24.5554 260.348 24.562 260.359C25.306 257.595 26.2824 255.145 27.2636 251.853C30.0688 242.445 26.3871 244.585 52.4228 244.49L49.1535 260.395C52.4114 257.014 53.8471 249.829 55.2671 244.454L85.159 244.12C84.592 249.252 81.49 257.705 84.0014 260.854C87.4838 257.313 87.0974 249.309 88.7588 244.022L122.756 243.477C123.128 248.311 121.927 257.618 123.729 261.029C127.89 258.714 125.113 247.873 126.708 243.266L155.578 242.851L158.654 261.305C163.566 258.577 158.955 253.885 159.128 242.745C167.229 242.456 181.619 241.093 188.105 243.5C189.962 247.991 190.213 258.789 194.356 260.971C195.89 257.407 192.084 247.689 191.649 243.089L220.399 242.812C222.408 248.081 224.328 258.301 227.463 261.035C228.379 259.572 227.927 261.352 228.096 258.888L226.587 252.279C225.616 248.986 224.504 245.617 223.858 241.994L246.25 242.505C247.67 246.791 249.535 257.041 252.844 259.702C255.259 256.358 251.161 251.42 251.204 245.239L251.203 245.239ZM803.805 38.1264C807.689 38.4699 806.312 38.7755 809.239 37.3804L806.967 36.0683C803.785 33.0969 805.242 22.9436 804.049 15.237C803.192 9.69674 794.731 2.14053 790.935 0C791.887 5.24182 799.918 9.96566 801.259 14.37C802.59 18.7413 802.281 31.3998 803.805 38.127V38.1264ZM395.755 127.15C396.878 126.275 397.612 128.992 397.569 119.96L424.996 120.472L426.206 125.273C426.305 125.514 426.664 126.336 426.744 126.165C426.827 125.99 427.12 126.769 427.571 127.049L427.331 117.57L395.205 117.804L395.754 127.15H395.755ZM590.339 149.058C593.94 145.059 591.472 147.412 592.734 142.209L618.116 141.985L619.787 148.722C621.957 145.527 621.541 144.074 621.15 140.152C614.869 138.681 597.184 139.125 590.208 139.66L590.339 149.058ZM350.949 81.9145L343.088 81.4952C343.073 75.8485 344.655 46.2367 340.998 43.9999L340.805 84.0232L348.07 84.4455C348.933 90.0248 347.157 99.206 350.432 103.085L350.949 81.9139L350.949 81.9145ZM675.362 256.161C678.83 252.956 677.214 251.249 677.354 245.697C677.439 242.278 677.721 239.201 677.681 235.694C680.588 234.197 684.766 233.43 688.193 234.051C688.02 237.367 688.371 259.735 689.344 257.25C689.405 257.095 689.655 257.802 689.846 258.053C693.696 253.085 691.934 236.347 690.342 231.115C684.215 230.163 683.634 230.519 677.706 231.696C677.7 230.496 677.796 230.198 677.406 228.968L675.882 225.871L665.407 224.879C665.217 214.11 665.675 158.763 663.36 152.935C653.882 151.287 596.372 152.442 580.871 153.447C572.204 154.01 565.827 151.769 559.647 153.001L556.835 153.866C556.613 153.939 556.246 154.075 555.97 154.219C557.39 155.972 555.458 154.819 557.97 155.798L607.08 155.811C620.608 155.678 649.659 153.459 661.153 155.306C664.203 168.473 660.845 215.404 662.241 227.684C664.576 230.07 662.51 228.393 667.744 228.823L671.946 229.732C672.159 229.426 672.617 230.052 672.912 230.274C671.472 232.964 674.713 231.603 668.898 233.489L653.236 235.132C647.674 235.832 636.397 236.048 632.301 237.562C634.435 242.627 633.666 241.357 651.333 239.214C658.555 238.339 665.244 237.259 672.552 235.923L673.384 238.675L672.499 256.662L675.361 256.16L675.362 256.161ZM863.976 242.944L915.964 249.487C919.338 250.253 916.596 249.218 918.741 250.781L920.37 252.485C920.706 246.901 921.725 247.684 916.005 246.751C905.033 244.961 867.719 240.037 860.998 240.374C861.084 244.709 862.44 249.786 866.004 252.392L863.976 242.943L863.976 242.944ZM327.48 106.627C330.699 106.22 329.277 107.327 330.744 104.618C327.751 100.097 330.545 104.239 326.219 101.312L326.03 84.3276L334.942 83.9462L334.937 41.5923L339.556 40.6592C337.231 37.248 338.756 38.2527 333.135 38.4693C330.489 51.5724 333.509 66.979 332.635 80.8382L323.819 81.7509L323.956 103.515C328.307 107.089 326.42 102.826 327.48 106.627V106.627ZM546.104 214.843L521.653 216.504C524.637 220.264 544.033 217.997 548.279 217.728C551.484 200.704 547.179 181.562 548.542 169.433C548.876 166.462 550.001 156.408 548.591 153.726C543.977 157.107 545.717 176.571 545.81 182.878C545.928 190.911 547.521 208.117 546.103 214.843H546.104ZM774.204 252.107C777.639 250.469 778.19 241.165 778.656 237.21L844.689 241.098C847.064 245.14 845.989 247.595 848.941 251.544C848.952 249.141 849.006 246.174 848.519 243.824C847.394 238.389 847.802 240.822 846.024 239.217C839.885 236.073 786.435 234.658 776.656 235.378L774.205 252.107H774.204ZM513.279 140.543C517.688 137.045 513.07 135.274 516.589 130.339C519.721 135.38 517.709 132.258 518.028 134.333C518.993 140.626 516.911 202.156 519.901 211.705C523.268 208.7 520.74 203.061 521.085 191.696C521.425 180.512 521.809 133.773 519.187 128.479L512.482 127.849C511.69 132.359 511.422 136.906 513.279 140.543H513.279ZM469.108 250.911L468.788 200.16L483.095 199.845C482.648 209.082 483.876 216.226 483.559 224.763C483.25 233.071 480.62 240.83 484.256 247.905L483.83 250.795L469.108 250.91V250.911ZM787.825 179.964C789.812 188.17 780.22 201.786 783.648 209.079C787.105 207.241 788.663 192.357 790.209 184.994L803.938 106.818C804.077 100.85 804.53 104.681 802.038 103.309L787.825 179.964ZM439.864 159.725C440.459 184.526 438.144 207.576 441.051 233.054L450.846 234.261C452.617 241.579 450.163 246.9 451.06 250.215L454.432 250.109C458.175 225.857 450.275 231.155 443.617 230.368C440.819 215.179 445.155 139.134 440.446 132.845C438.218 136.496 439.795 154.143 439.864 159.725V159.725ZM381.427 130.899C383.218 151.769 380.665 175.283 381.325 196.105C381.645 206.23 383.039 217.414 383.116 226.942C383.193 236.382 380.029 247.688 383.061 256.786C387.78 254.271 385.464 249.853 385.201 244.643C384.954 239.734 385.277 234.159 385.312 229.173L384.672 136.031C386.091 132.183 383.919 133.493 390.667 133.065L425.001 132.604C428.61 132.562 434.186 133.306 436.966 131.074C432.855 128.699 389.056 130.247 381.427 130.9V130.899ZM793.78 111.59C792.942 116.709 792.34 124.235 789.903 127.771C790.957 138.465 782.812 158.729 780.198 169.655C775.873 187.735 780.394 178.836 772.591 200.592C772.237 201.581 771.036 204.984 770.92 205.628L771.509 210.732C776.293 207.922 781.56 176.237 783.706 170.749C786.136 151.825 794.595 130.378 797.379 110.408C800.574 87.4824 800.695 65.3035 797.739 42.322C796.526 37.5807 795.549 31.8931 794.651 26.5478C793.862 21.8492 795.495 11.3488 791.373 8.81057C788.486 14.0157 803.693 87.4554 793.781 111.59L793.78 111.59ZM353.26 109.515L325.683 109.117C320.687 109.608 314.881 109.111 310.317 111.233C312.427 113.023 316.301 112.681 319.014 112.601L351.022 112.157C351.515 126.046 349.545 207.647 353.449 212.457L364.695 214.36C365.265 220.416 362.927 234.802 365.404 237.53C371.376 232.809 367.74 213.515 367.451 213.129C365.03 209.887 361.389 210.926 355.152 210.874C355.192 193.792 354.863 176.749 354.333 159.732C354.053 150.742 355.252 142.455 354.865 133.278C354.542 125.646 353.415 115.635 353.26 109.515H353.26ZM155.661 240.092C149.14 240.635 130.877 241.52 125.699 239.53L125.443 226.633L156.925 225.666L155.661 240.092ZM26.829 226.647L50.195 226.48L53.2343 241.266C46.2749 241.831 33.6047 242.468 28.5771 240.305L26.829 226.647ZM86.5767 226.543L122.391 226.032L122.658 240.606C114.216 241.223 94.9079 242.982 88.2134 240.512L86.5773 226.543H86.5767ZM53.3878 226.542L83.2369 226.328L85.3517 241.199C76.0163 241.141 63.6435 243.356 55.8823 240.699L53.3878 226.542ZM191.498 239.743L193.324 224.979L223.645 225.43C221.889 239.534 221.507 239.439 215.445 239.583C208.285 239.752 198.352 240.378 191.498 239.743ZM246.222 239.304L224.137 239.45L226.62 225.151L248.41 223.836C249.302 226.057 249.175 223.941 249.171 227.719C249.17 228.237 248.701 230.878 248.593 231.41C247.967 234.478 247.52 236.903 246.222 239.305V239.304ZM50.57 215.105L80.9067 209.104L83.0269 223.582L52.3879 223.314L50.57 215.106V215.105ZM24.5415 216.193L47.5896 216.037L50.1004 223.86L26.3841 224.561L24.5415 216.193V216.193ZM55.5392 190.539C59.254 190.923 68.4364 189.402 70.3765 192.186C77.8162 191.742 85.5413 194.248 92.9395 195.035C108.928 196.734 97.0888 193.591 113.824 198.428C105.675 202.109 68.5279 209.09 57.2235 211.032C-2.15033 221.236 -12.8377 192.659 24.4151 189.745C34.7936 188.934 45.5002 190.072 55.5392 190.54V190.539ZM127.034 223.449C123.235 219.358 125.645 209.49 124.619 203.983C124.183 201.642 124.496 202.639 123.728 201.433L122.163 211.52C122.343 215.534 122.414 219.549 122.457 223.567L85.8651 223.82L83.7853 208.381L125.93 199.292C137.273 193.356 215.666 182.107 232.769 181.093C232.001 188.422 226.919 217.008 223.953 221.368C219.316 223.431 200.839 222.639 194.091 222.644C194.98 216.68 195.991 211.136 196.737 204.938C197.095 201.96 197.331 199.257 197.951 196.354C200.249 185.593 199.142 188.854 197.37 187.247C193.606 194.929 193.439 212.192 190.901 222.256L160.362 223L162.069 200.086C162.306 197.984 162.534 195.231 161.248 193.339C158.37 196.822 157.683 217.766 157.326 222.212L127.032 223.449H127.034Z" fill="url(#paint0_linear)"/>
<defs>
<linearGradient id="paint0_linear" x1="469" y1="0" x2="469" y2="268.998" gradientUnits="userSpaceOnUse">
<stop stop-color="#444444"/>
<stop offset="1" stop-color="#A7A7A7" stop-opacity="0"/>
</linearGradient>
</defs>
</svg>
