<svg fill="#f97316" height="50" width="50" viewBox="0 0 24 24" xmlns="http://www.w3.org/2000/svg"><g fill="#292d32"><path d="m18.8086 6.25047h1.36c-.19-.27-.39-.52-.6-.77z"/><path d="m18.52 4.42031c-.25-.21-.5-.41-.77-.6v1.36z"/><path d="m19.5795 5.48141 2.95-2.95c.29-.29.29-.77 0-1.06s-.77-.29-1.06 0l-2.95 2.95c.38.33.73.69 1.06 1.06z"/><path d="m17.7517 3c0-.41-.34-.75-.75-.75-.4 0-.72.32-.74.71.52.25 1.02.53 1.49.86z"/><path d="m21.7519 7c0-.41-.34-.75-.75-.75h-.83c.33.47.62.97.86 1.49.4-.02.72-.34.72-.74z"/><path d="m12.75 14.7508h.3c.39 0 .7-.35.7-.78 0-.54-.15-.62-.49-.74l-.51-.18z"/><path d="m21.04 7.74c-.01 0-.02.01-.04.01h-4c-.1 0-.19-.02-.29-.06-.18-.08-.33-.22-.41-.41-.03-.09-.05-.18-.05-.28v-4c0-.01.01-.02.01-.04-1.3-.61-2.74-.96-4.26-.96-5.52 0-10 4.48-10 10s4.48 10 10 10 10-4.48 10-10c0-1.52-.35-2.96-.96-4.26zm-7.29 4.08c.64.22 1.5.69 1.5 2.16 0 1.25-.99 2.28-2.2 2.28h-.3v.25c0 .41-.34.75-.75.75s-.75-.34-.75-.75v-.25h-.08c-1.33 0-2.42-1.12-2.42-2.5 0-.42.34-.76.75-.76s.75.34.75.75c0 .55.41 1 .92 1h.08v-2.22l-1-.35c-.64-.22-1.5-.69-1.5-2.16 0-1.25.99-2.28 2.2-2.28h.3v-.24c0-.41.34-.75.75-.75s.75.34.75.75v.25h.08c1.33 0 2.42 1.12 2.42 2.5 0 .41-.34.75-.75.75s-.75-.34-.75-.75c0-.55-.41-1-.92-1h-.08v2.22z"/><path d="m10.25 10.03c0 .54.15.62.49.74l.51.18v-1.7h-.3c-.38 0-.7.35-.7.78z"/></g></svg>