<svg height="50" width="50" viewBox="0 0 30 30"  fill="#f97316" xmlns="http://www.w3.org/2000/svg"><path d="m11.984375 4.9863281a1.0001 1.0001 0 0 0 -.144531.0136719h-6.1914065c-1.0659326 0-2.0527792.567783-2.5898437 1.4863281l-.0019532.0019531-2.78515622 4.7734378v.001953c-.17775447.305528-.27148438.651835-.27148438 1.005859v3.730469 2.357422c0 .955.67432813 1.774937 1.6113281 1.960937l2.4199219.478516c.1550274 1.781849 1.6492974 3.203125 3.46875 3.203125 1.7499335 0 3.201823-1.314589 3.449219-3h1.050781 9.050781c.247396 1.685411 1.699286 3 3.449219 3 1.866331 0 3.397818-1.493469 3.484375-3.339844l.638672-.208984c.822-.269 1.376953-1.036391 1.376953-1.900391v-3.978515c0-.923-.632297-1.72536-1.529297-1.94336l-5.449219-1.320312-3.609375-5.0507815c-.562108-.7884501-1.473424-1.2578125-2.441406-1.2578125h-4.816406a1.0001 1.0001 0 0 0 -.169922-.0136719zm-6.3359375 2.0136719h5.3515625v4h-8.2597656l2.0449218-3.5039062c.1809355-.309455.5052139-.4960938.8632813-.4960938zm7.3515625 0h3.970703c.324019 0 .624608.1544188.8125.4179688l2.558594 3.5820312h-7.341797zm-5.5 12c.8402718 0 1.5.659728 1.5 1.5s-.6597282 1.5-1.5 1.5-1.5-.659728-1.5-1.5.6597282-1.5 1.5-1.5zm17 0c.840272 0 1.5.659728 1.5 1.5s-.659728 1.5-1.5 1.5-1.5-.659728-1.5-1.5.659728-1.5 1.5-1.5z"/></svg>