<svg height="50" viewBox="0 0 16 16" width="50" xmlns="http://www.w3.org/2000/svg"><path d="m15 6.1-1.4-2.9c-.4-.7-1.1-1.2-2-1.2h-.6v-1.3c0-.4-.3-.7-.7-.7h-4.6c-.4 0-.7.3-.7.7v1.3h-.7c-.8 0-1.6.5-1.9 1.2l-1.4 2.9c-.6.1-1 .6-1 1.1v3.5c0 .6 0 1.1 1 1.2v2c0 .6.4 1.1 1 1.1h.9c.6 0 1.1-.5 1.1-1.1v-1.9h8v1.9c0 .6.4 1.1 1 1.1h.9c.6 0 1.1-.5 1.1-1.1v-2c1-.1 1-.6 1-1.2v-3.5c0-.5-.4-1-1-1.1zm-11 2.3c0 .3-.3.6-.6.6h-1.8c-.3 0-.6-.3-.6-.6v-.8c0-.3.3-.6.6-.6h1.8c.3 0 .6.3.6.6zm6 2.6h-4v-1h4zm-7.9-5 1.2-2.4c.2-.4.6-.6 1-.6h7.4c.4 0 .8.2 1 .6l1.2 2.4h-11.8zm12.9 2.4c0 .3-.3.6-.6.6h-1.8c-.3 0-.6-.3-.6-.6v-.8c0-.3.3-.6.6-.6h1.8c.3 0 .6.3.6.6z" fill="#f97316"/></svg>